<?xml version="1.0" encoding="UTF-8" standalone="no"?>
<!-- Created with Inkscape (http://www.inkscape.org/) -->

<svg
   width="178.61325mm"
   height="243.32269mm"
   viewBox="0 0 178.61325 243.32269"
   version="1.1"
   id="svg1"
   xml:space="preserve"
   xmlns="http://www.w3.org/2000/svg"
   xmlns:svg="http://www.w3.org/2000/svg"><defs
     id="defs1" /><g
     id="layer1"
     transform="translate(1356.622,-970.9)"><path
       style="fill:#ffffff;stroke-width:3.68158"
       d="m -1304.0259,1164.3733 c -48.8704,-67.5569 -52.5976,-75.0621 -52.5961,-105.9101 7e-4,-12.7747 0.3387,-16.2663 2.1979,-22.688 9.2374,-31.9075 36.0275,-56.33261 69.3829,-63.25721 12.7714,-2.6515 29.9478,-1.9955 42.1762,1.6106 16.077,4.7412 29.4621,12.8215 40.6906,24.5632 10.4166,10.89341 17.5018,22.97451 21.4455,36.56761 3.1493,10.8551 3.6455,30.6377 1.0611,42.3079 -2.5646,11.5797 -7.0263,22.722 -13.2014,32.9674 -4.9624,8.2339 -73.7019,103.7395 -74.6285,103.6879 -0.2688,0 -16.7055,-22.4469 -36.5282,-49.8493 z m 48.7039,-70.4841 c 17.8004,-5.3004 26.9624,-24.9614 20.8513,-44.7466 -4.9959,-16.1757 -24.02,-25.993 -41.6287,-21.482 -11.4463,2.9324 -18.5923,8.6594 -23.2421,18.6266 -2.3967,5.1369 -2.7225,6.9644 -2.6931,15.0981 0.037,7.8307 0.4175,10.0846 2.5289,14.656 3.3926,7.344 7.478,11.7332 14.314,15.3765 9.3545,4.9863 18.7999,5.7675 29.8697,2.4714 z"
       id="path4" /></g></svg>
