<?xml version="1.0" encoding="UTF-8" standalone="no"?>
<!-- Created with Inkscape (http://www.inkscape.org/) -->

<svg
   width="88.177742mm"
   height="58.160156mm"
   viewBox="0 0 88.177742 58.160156"
   version="1.1"
   id="svg1"
   xmlns="http://www.w3.org/2000/svg"
   xmlns:svg="http://www.w3.org/2000/svg">
  <defs
     id="defs1" />
  <g
     id="layer1"
     transform="translate(-50.738279,-88.501958)">
    <g
       id="rect5">
      <g
         id="g10">
        <g
           id="rect4">
          <path
             style="color:#000000;fill:#000000;stroke-linejoin:round;-inkscape-stroke:none;paint-order:markers stroke fill"
             d="m 53.501953,111.99609 a 2.7630312,2.7630312 0 0 0 -2.763672,2.76368 v 5.64453 a 2.7630312,2.7630312 0 0 0 2.763672,2.76172 h 82.650387 a 2.7630312,2.7630312 0 0 0 2.76368,-2.76172 v -5.64453 a 2.7630312,2.7630312 0 0 0 -2.76368,-2.76368 z m 2.761719,5.52539 h 77.126948 v 0.11915 H 56.263672 Z"
             id="path7" />
          <path
             style="color:#000000;fill:#000000;stroke-linejoin:round;-inkscape-stroke:none;paint-order:markers stroke fill"
             d="m 53.501698,114.75967 h 82.650752 v 5.64401 H 53.501698 Z"
             id="path8" />
        </g>
        <g
           id="rect3">
          <path
             style="color:#000000;fill:#000000;stroke-linejoin:round;-inkscape-stroke:none;paint-order:markers stroke fill"
             d="m 53.501953,135.49219 a 2.7630312,2.7630312 0 0 0 -2.763672,2.76367 v 5.64453 a 2.7630312,2.7630312 0 0 0 2.763672,2.76172 h 82.650387 a 2.7630312,2.7630312 0 0 0 2.76368,-2.76172 v -5.64453 a 2.7630312,2.7630312 0 0 0 -2.76368,-2.76367 z m 2.761719,5.52539 h 77.126948 v 0.11914 H 56.263672 Z"
             id="path5" />
          <path
             style="color:#000000;fill:#000000;stroke-linejoin:round;-inkscape-stroke:none;paint-order:markers stroke fill"
             d="m 53.501698,138.25549 h 82.650752 v 5.64402 H 53.501698 Z"
             id="path6" />
        </g>
        <path
           style="color:#000000;fill:#000000;stroke-linejoin:round;-inkscape-stroke:none;paint-order:markers stroke fill"
           d="m 53.501953,88.501953 a 2.7630312,2.7630312 0 0 0 -2.763672,2.761719 v 5.644531 a 2.7630312,2.7630312 0 0 0 2.763672,2.761719 h 82.650387 a 2.7630312,2.7630312 0 0 0 2.76368,-2.761719 v -5.644531 a 2.7630312,2.7630312 0 0 0 -2.76368,-2.761719 z m 2.761719,5.525391 h 77.126948 v 0.117187 H 56.263672 Z"
           id="path9" />
      </g>
      <path
         style="color:#000000;fill:#000000;stroke-linejoin:round;-inkscape-stroke:none;paint-order:markers stroke fill"
         d="m 53.501698,91.263863 h 82.650752 v 5.644016 H 53.501698 Z"
         id="path10" />
    </g>
  </g>
</svg>
