<?xml version="1.0" encoding="UTF-8" standalone="no"?>
<!-- Created with Inkscape (http://www.inkscape.org/) -->

<svg
   width="223.07745mm"
   height="241.75684mm"
   viewBox="0 0 223.07745 241.75684"
   version="1.1"
   id="svg1"
   xml:space="preserve"
   xmlns="http://www.w3.org/2000/svg"
   xmlns:svg="http://www.w3.org/2000/svg"><defs
     id="defs1" /><g
     id="layer1"
     transform="translate(1562.0413,-1145.7093)"><path
       style="fill:#000000;stroke-width:3.68158"
       d="m -1304.0259,1164.3733 c -48.8704,-67.5569 -52.5976,-75.0621 -52.5961,-105.9101 7e-4,-12.7747 0.3387,-16.2663 2.1979,-22.688 9.2374,-31.9075 36.0275,-56.33261 69.3829,-63.25721 12.7714,-2.6515 29.9478,-1.9955 42.1762,1.6106 16.077,4.7412 29.4621,12.8215 40.6906,24.5632 10.4166,10.89341 17.5018,22.97451 21.4455,36.56761 3.1493,10.8551 3.6455,30.6377 1.0611,42.3079 -2.5646,11.5797 -7.0263,22.722 -13.2014,32.9674 -4.9624,8.2339 -73.7019,103.7395 -74.6285,103.6879 -0.2688,0 -16.7055,-22.4469 -36.5282,-49.8493 z m 48.7039,-70.4841 c 17.8004,-5.3004 26.9624,-24.9614 20.8513,-44.7466 -4.9959,-16.1757 -24.02,-25.993 -41.6287,-21.482 -11.4463,2.9324 -18.5923,8.6594 -23.2421,18.6266 -2.3967,5.1369 -2.7225,6.9644 -2.6931,15.0981 0.037,7.8307 0.4175,10.0846 2.5289,14.656 3.3926,7.344 7.478,11.7332 14.314,15.3765 9.3545,4.9863 18.7999,5.7675 29.8697,2.4714 z"
       id="path4" /><path
       style="fill:#ffffff"
       d="m -1389.6866,1387.3278 c -42.99,-4.3267 -86.465,-26.8824 -117.4467,-60.9338 -29.8978,-32.8601 -48.0764,-71.8366 -53.9871,-115.7529 -1.0767,-8.0002 -1.2558,-27.8539 -0.2891,-32.055 1.9614,-8.5234 18.4068,-25.3703 30.37,-31.1113 3.2551,-1.5621 4.096,-1.7582 7.5681,-1.7652 2.8333,-0.01 4.9007,0.3179 7.5274,1.1782 3.4795,1.1395 12.8144,6.3764 15.017,8.4244 4.2263,3.9299 10.8941,27.0086 14.077,48.7239 1.2034,8.2105 0.5949,10.4584 -4.5402,16.7716 -2.039,2.5068 -13.2568,13.1907 -18.3456,17.4723 -1.355,1.1401 8.0079,19.832 15.8268,31.5964 6.8824,10.3553 12.3199,17.2467 19.3468,24.52 12.8828,13.3346 31.5792,28.2151 41.7176,33.2033 l 3.2272,1.5878 6.294,-5.5123 c 12.2998,-10.7724 17.623,-14.1904 22.6688,-14.5553 3.2977,-0.2386 10.7716,1.7049 24.135,6.276 14.8742,5.0877 25.7034,10.1572 29.4643,13.7931 1.7789,1.7198 4.8383,7.8236 6.7805,13.5279 0.9152,2.6881 1.2629,4.7659 1.3073,7.8123 0.1079,7.4027 -2.0841,11.3084 -11.6463,20.7513 -6.3931,6.3133 -12.3874,10.7314 -18.7948,13.8526 l -4.6235,2.2523 -6.8507,0.069 c -3.7679,0.038 -7.7296,-0.019 -8.8038,-0.1271 z"
       id="path5" /></g></svg>
